<?xml version="1.0" encoding="utf-8"?>
<?xml-stylesheet type="text/xsl" href="rss1.xsl"?>
<rss version="2.0" xmlns:atom="http://www.w3.org/2005/Atom" xmlns:content="http://purl.org/rss/1.0/modules/content/" xmlns:dc="http://purl.org/dc/elements/1.1/" xmlns:media="http://search.yahoo.com/mrss/">
<channel>
 <title>Getty</title>
 <link>http://www.gettyimg.com/</link>
 <atom:link href="http://www.gettyimg.com/" rel="self" type="application/rss+xml" />

 
                <item>
                <title><![CDATA[【Music Videos】Sinead O'Connor - Nothing Compares 2 U (DTS-HD 5.1) (Clean)]]></title>
                <link><![CDATA[https://sharemania.us/threads/sinead-oconnor-nothing-compares-2-u-dts-hd-5-1-clean.235126/]]></link>
                <description><![CDATA[<article>
<blockquote class="messageText SelectQuoteContainer ugc baseHtml">
<img src="https://i.ibb.co/BgsYtKW/Sinead-O-Connor-Nothing-Compares-2-U-1989-DTS-5-1-mp4-thumbs-2024-01-02-15-48-43.jpg" class="bbCodeImage LbImage" alt="[​IMG]" data-url="https://i.ibb.co/BgsYtKW/Sinead-O-Connor-Nothing-Compares-2-U-1989-DTS-5-1-mp4-thumbs-2024-01-02-15-48-43.jpg" style=""><br>
<br>
<div class="ToggleTriggerAnchor bbCodeSpoilerContainer">
<button type="button" class="button bbCodeSpoilerButton ToggleTrigger Tooltip JsOnly" data-target="> .SpoilerTarget"><span>Spoiler: <span class="SpoilerTitle">MediaInfo</span></span></button>
<div class="SpoilerTarget bbCodeSpoilerText">Sinead O'Connor - Nothing Compares 2 U [1989] (DTS-HD 5.1).mp4<br>
Format : MPEG-4<br>
Format profile : Base Media / Version 2<br>
Codec ID : mp42 (mp42/mp41)<br>
File size : 376 MiB<br>
Duration : 5 min 7 s<br>
Overall bit rate mode : Variable<br>
Overall bit rate : 10.3 Mb/s<br>
Frame rate : 25.000 FPS<br>
Encoded date : 2023-08-06 18:48:23 UTC<br>
Tagged date : 2023-08-06 19:00:57 UTC<br>
TIM : 00:00:00:00<br>
TSC : 25<br>
TSZ : 1<br>
<br>
Video<br>
ID : 1<br>
Format : AVC<br>
Format/Info : Advanced Video Codec<br>
Format profile : High@L3.1<br>
Format settings : CABAC / 4 Ref Frames<br>
Format settings, CABAC : Yes<br>
Format settings, Reference : 4 frames<br>
Codec ID : avc1<br>
Codec ID/Info : Advanced Video Coding<br>
Duration : 5 min 7 s<br>
Bit rate : 9 935 kb/s<br>
Width : 720 pixels<br>
Height : 576 pixels<br>
Display aspect ratio : 4:3<br>
Original display aspect rat : 4:3<br>
Frame rate mode : Constant<br>
Frame rate : 25.000 FPS<br>
Standard : PAL<br>
Color space : YUV<br>
Chroma subsampling : 4:2:0<br>
Bit depth : 8 bits<br>
Scan type : Interlaced<br>
Scan type, store method : Separated fields<br>
Scan order : Bottom Field First<br>
Bits/(Pixel*Frame) : 0.958<br>
Stream size : 364 MiB (97%)<br>
Language : English<br>
Encoded date : 2023-08-06 18:48:23 UTC<br>
Tagged date : 2023-08-06 18:48:23 UTC<br>
Color range : Limited<br>
Color primaries : BT.601 PAL<br>
Transfer characteristics : BT.470 System B/G<br>
Matrix coefficients : BT.470 System B/G<br>
Codec configuration box : avcC<br>
<br>
Audio<br>
ID : 2<br>
Format : AAC LC<br>
Format/Info : Advanced Audio Codec Low Complexity<br>
Codec ID : mp4a-40-2<br>
Duration : 5 min 7 s<br>
Source duration : 5 min 7 s<br>
Bit rate mode : Variable<br>
Bit rate : 317 kb/s<br>
Maximum bit rate : 499 kb/s<br>
Channel(s) : 6 channels<br>
Channel layout : C L R Ls Rs LFE<br>
Sampling rate : 48.0 kHz<br>
Frame rate : 46.875 FPS (1024 SPF)<br>
Compression mode : Lossy<br>
Stream size : 11.6 MiB (3%)<br>
Source stream size : 11.6 MiB (3%)<br>
Language : English<br>
Encoded date : 2023-08-06 18:48:24 UTC<br>
Tagged date : 2023-08-06 18:48:24 UTC</div>
</div><br>
<div class="bbCodeBlock bbCodeVfcHH HiddenContent">
<div class="attribution type">Hidden Content:</div>
<blockquote>You must reply before you can see the hidden data contained here.</blockquote>
</div>*Este es mi tercer post para comenzar a compartir videos, musica, etc... Si hay que corregir algo en el post (Prefix, MediaInfo, etc) le ruego a algun administrador que me envie mensaje por interno para que me enseñe y asi pueda proceder a la edición!<br>
<br>
De antemano muchisimas gracias!!!<br>
------------------------------------------------<br>
<br>
*This is my third post to start sharing videos, music, etc... If something needs to be corrected in the post (Prefix, MediaInfo, etc.) I ask an administrator to send me a message internally so they can show me and so I can proceed to editing!<br>
<br>
Thank you very much in advance!!!
<div class="messageTextEndMarker">&nbsp;</div>
</blockquote>
</article>]]></description>
                <author><![CDATA[DJ-RoGeRs-BS]]></author>
                </item>

                
                <item>
                <title><![CDATA[【Albums (lossless)】FLAC - Vũ Thanh Vân - Hết Sức Thật Lòng | FLAC 16bit / 44.1kHz]]></title>
                <link><![CDATA[https://sharemania.us/threads/v%C5%A9-thanh-v%C3%A2n-h%E1%BA%BFt-s%E1%BB%A9c-th%E1%BA%ADt-l%C3%B2ng-flac-16bit-44-1khz.235125/]]></link>
                <description><![CDATA[<article>
<blockquote class="messageText SelectQuoteContainer ugc baseHtml">
VERY Nice, Thanks
<div class="messageTextEndMarker">&nbsp;</div>
</blockquote>
</article>]]></description>
                <author><![CDATA[luc51nsl]]></author>
                </item>

                
                <item>
                <title><![CDATA[【HD Live Performances】WEB-RiP - Jools' Annual Hootenanny 2023-24 (BBC Two HD 2023-12-31) WEB-RiP 1080p-50fps-TPF HDMania]]></title>
                <link><![CDATA[https://sharemania.us/threads/jools-annual-hootenanny-2023-24-bbc-two-hd-2023-12-31-web-rip-1080p-50fps-tpf-hdmania.235127/]]></link>
                <description><![CDATA[<article>
<blockquote class="messageText SelectQuoteContainer ugc baseHtml">
<img src="https://static.qobuz.com/images/covers/1b/sf/namyqgzgosf1b_org.jpg" class="bbCodeImage LbImage" alt="[​IMG]" data-url="https://static.qobuz.com/images/covers/1b/sf/namyqgzgosf1b_org.jpg" style=""> <br>
<br>
<b><span style="font-size: 26px">Title: Hết Sức Thật Lòng (EP)</span><br>
<span style="font-size: 18px">Artist: Vũ Thanh Vân</span></b><br>
<b>Genre:</b> <b>Pop</b><br>
<b>Release date:</b> <b>24/11/2022</b><br>
<b>℗ 2022 InQ International</b><br>
<br>
<b>• Tracklist:</b><br>
01. Em Không<br>
02. Personal<br>
03. Lắng Nghe<br>
04. Sài Gòn Khóc Hộ Em<br>
05. Khó Để Yêu (Part 1)<br>
06. Khó Để Yêu (Part 2)<br>
<br>
<b><i>[SPECIAL: Track no.1 from Qobuz and Amazon Music have Hi-Res; Have video cover]</i></b><br>
<br>
<div class="bbCodeBlock bbCodeVfcHH HiddenContent">
<div class="attribution type">Hidden Content:</div>
<blockquote>You must reply before you can see the hidden data contained here.</blockquote>
</div>
<div class="messageTextEndMarker">&nbsp;</div>
</blockquote>
</article>]]></description>
                <author><![CDATA[ThePixelFarm]]></author>
                </item>

                </channel></rss>